# xmcd CD database file
#
# Track frame offsets:
#	150
#	27935
#	47628
#	72578
#	93955
#	108314
#	136714
#	163366
#	188205
#	208713
#	233091
#	257035
#	277399
#	299747
#
# Disc length: 4352 seconds
#
# Revision: 2
# Processed by: cddbd v1.5.2PL0 Copyright (c) Steve Scherf et al.
# Submitted via: CDex 1.70beta3
#
DISCID=db10fe0e
DTITLE=福耳 +All Stars - ALL SONGS MUST PASS -Office Augusta 20th Anniversary BEST- (Disc-1)
DYEAR=1900
DGENRE=Blues
TTITLE0=星のかけらを探しに行こう Again
TTITLE1=DISTANCIA ～この胸の約束～
TTITLE2=One more time,One more chance
TTITLE3=愛について
TTITLE4=BIRDS
TTITLE5=ひとりじゃできないから手伝ってください
TTITLE6=ワダツミの木
TTITLE7=奏(かなで)
TTITLE8=P.S.S.O.S
TTITLE9=鱗(うろこ)
TTITLE10=ストーリー
TTITLE11=10 Years After
TTITLE12=SUMMER of LOVE
TTITLE13=ALL OVER AGAIN
EXTD=
EXTT0=
EXTT1=
EXTT2=
EXTT3=
EXTT4=
EXTT5=
EXTT6=
EXTT7=
EXTT8=
EXTT9=
EXTT10=
EXTT11=
EXTT12=
EXTT13=
PLAYORDER=
